# xmcd
#
# Track frame offsets:
#	150
#	15599
#	31900
#	47054
#	61280
#	77094
#	93673
#	107102
#	122765
#	137385
#	151872
#	166810
#	180119
#	193946
#	213676
#	227705
#	246221
#	261126
#	276422
#	290380
#	306245
#	319617
#
# Disc length: 4501 seconds
#
# Revision: 0
# Processed by: cddbd v1.5.2PL0 Copyright (c) Steve Scherf et al.
# Submitted via: dBpowerAMP V4.0
#
DISCID=2f119316
DTITLE=Various Artist - ERG Nu Country Traxx Vol. 240 CAN
DYEAR=2014
DGENRE=Country
TTITLE0=Eric Church - Cold One
TTITLE1=Zac Brown Band - All Alright
TTITLE2=Chelsea Bain  - Cowboy In A Cadillac
TTITLE3=Beverly Mahood - Sunday I'm An Angel
TTITLE4=John King - Tonight Tonight
TTITLE5=Dean Brody - Another Man's Gold
TTITLE6=Blackjack Billy - Blood, Sweat And Beer
TTITLE7=David Fanning - Drink You Away
TTITLE8=Sheryl Crow - Shotgun
TTITLE9=Doc Walker - Shake It Like It's Saturday Night
TTITLE10=Jerrod Niemann - Donkey [Radio Edit]
TTITLE11=Tim Hicks - Here Comes The Thunder
TTITLE12=Dan and Shay  - Show You Off
TTITLE13=Randy Houser - Like A Cowboy
TTITLE14=MacKenzie Porter - If You Ask Me To
TTITLE15=Ben Rue - I Can't Wait Be My Wife [With Steel]
TTITLE16=Lady Antebellum - Bartender
TTITLE17=Brantley Gilbert - Small Town Throwdown
TTITLE18=Chad Brownlee - We Don't Walk This Road Alone
TTITLE19=Kira Isabella - Quarterback [New Mix Master]
TTITLE20=Lindsay Ell - Pickup Truck
TTITLE21=Donny Parenteau - Don't Forget To Fish
EXTD=
EXTT0=
EXTT1=
EXTT2=
EXTT3=
EXTT4=
EXTT5=
EXTT6=
EXTT7=
EXTT8=
EXTT9=
EXTT10=
EXTT11=
EXTT12=
EXTT13=
EXTT14=
EXTT15=
EXTT16=
EXTT17=
EXTT18=
EXTT19=
EXTT20=
EXTT21=
PLAYORDER=
